<svg viewBox="0 0 144 80" fill="none" xmlns="http://www.w3.org/2000/svg" aria-hidden="true">
  <!-- Mock of the loop's dashboard: the latest summary of outdated packages -
       two pre-authorized upgrades applied (green check), one major held
       (amber) - over the outdated-package count falling. Colors ride the
       app's CSS variables. -->
  <rect x="10.5" y="8.5" width="68" height="63" rx="5" fill="var(--color-surface, #fff)" stroke="var(--color-hairline, #e3e5ea)"/>
  <rect x="17" y="14" width="26" height="3" rx="1.5" fill="var(--color-wire, #cfd3db)"/>
  <rect x="17" y="23" width="9" height="9" rx="2" fill="var(--color-rubik-green, #009b48)" opacity="0.15"/>
  <path d="M21.5 30v-5m0 0l-1.8 1.8M21.5 25l1.8 1.8" stroke="var(--color-rubik-green, #009b48)" stroke-width="1.3" stroke-linecap="round" stroke-linejoin="round"/>
  <rect x="30" y="24.5" width="28" height="2.5" rx="1.25" fill="var(--color-wire, #cfd3db)"/>
  <rect x="30" y="29" width="16" height="2.5" rx="1.25" fill="var(--color-hairline, #e3e5ea)"/>
  <circle cx="70" cy="27.5" r="4" fill="var(--color-rubik-green, #009b48)"/>
  <path d="M68.2 27.5l1.3 1.4 2.4-2.7" stroke="#fff" stroke-width="1.2" fill="none" stroke-linecap="round" stroke-linejoin="round"/>
  <rect x="17" y="37" width="9" height="9" rx="2" fill="var(--color-rubik-green, #009b48)" opacity="0.15"/>
  <path d="M21.5 44v-5m0 0l-1.8 1.8M21.5 39l1.8 1.8" stroke="var(--color-rubik-green, #009b48)" stroke-width="1.3" stroke-linecap="round" stroke-linejoin="round"/>
  <rect x="30" y="38.5" width="24" height="2.5" rx="1.25" fill="var(--color-wire, #cfd3db)"/>
  <rect x="30" y="43" width="14" height="2.5" rx="1.25" fill="var(--color-hairline, #e3e5ea)"/>
  <circle cx="70" cy="41.5" r="4" fill="var(--color-rubik-green, #009b48)"/>
  <path d="M68.2 41.5l1.3 1.4 2.4-2.7" stroke="#fff" stroke-width="1.2" fill="none" stroke-linecap="round" stroke-linejoin="round"/>
  <rect x="14" y="51" width="61" height="10" rx="3" fill="var(--color-rubik-yellow, #ffd500)" opacity="0.16"/>
  <rect x="17" y="52" width="9" height="9" rx="2" fill="var(--color-rubik-orange, #ff5800)" opacity="0.2"/>
  <path d="M21.5 59v-5m0 0l-1.8 1.8M21.5 54l1.8 1.8" stroke="var(--color-rubik-orange, #ff5800)" stroke-width="1.3" stroke-linecap="round" stroke-linejoin="round"/>
  <rect x="30" y="53.5" width="26" height="2.5" rx="1.25" fill="var(--color-wire, #cfd3db)"/>
  <path d="M69 53.5l4 7.5h-8z" fill="var(--color-rubik-orange, #ff5800)" opacity="0.85"/>
  <path d="M69 56v2.3M69 59.6h0.01" stroke="#fff" stroke-width="1.2" stroke-linecap="round"/>
  <path d="M84 66h50" stroke="var(--color-hairline, #e3e5ea)" stroke-width="1.2"/>
  <path d="M85 24 96 30 107 28 118 40 129 50 133 56" stroke="var(--color-rubik-green, #009b48)" stroke-width="1.6" stroke-linecap="round" stroke-linejoin="round"/>
  <rect x="85" y="14" width="20" height="3" rx="1.5" fill="var(--color-hairline, #e3e5ea)"/>
  <circle cx="133" cy="56" r="2.5" fill="var(--color-rubik-green, #009b48)"/>
</svg>
