<svg viewBox="0 0 144 80" fill="none" xmlns="http://www.w3.org/2000/svg" aria-hidden="true">
  <!-- Reddit app icon (Snoo, white on brand #FF4500) feeds the loop, which turns a live
       thread into a value-only upvoted comment and a rising comment-karma curve. The
       Reddit icon keeps brand color; the rest of the chrome rides theme vars. -->

  <!-- ── Left: Reddit app icon ──────────────────────────────────── -->
  <rect x="8" y="24" width="32" height="32" rx="8" fill="#FF4500"/>
  <!-- antenna -->
  <path d="M26 36 L 30.5 30.5" stroke="#fff" stroke-width="1.4" stroke-linecap="round"/>
  <circle cx="31" cy="30" r="1.7" fill="#fff"/>
  <!-- ears -->
  <circle cx="16.5" cy="38" r="2.7" fill="#fff"/>
  <circle cx="31.5" cy="38" r="2.7" fill="#fff"/>
  <!-- head -->
  <ellipse cx="24" cy="42" rx="9" ry="7" fill="#fff"/>
  <!-- eyes (knockout to brand orange, with a small glint) -->
  <circle cx="20.7" cy="41.6" r="1.9" fill="#FF4500"/>
  <circle cx="27.3" cy="41.6" r="1.9" fill="#FF4500"/>
  <circle cx="20.2" cy="41.1" r="0.6" fill="#fff"/>
  <circle cx="26.8" cy="41.1" r="0.6" fill="#fff"/>
  <!-- smile -->
  <path d="M20 45.4 Q24 48 28 45.4" stroke="#FF4500" stroke-width="1.6" fill="none" stroke-linecap="round"/>

  <!-- ── Wires: Reddit → loop → outputs ─────────────────────────── -->
  <g stroke="var(--color-wire, #cfd3db)" stroke-width="1.4" fill="none" stroke-linecap="round">
    <path d="M41 40 L 56 40"/>
    <path d="M74 40 C 80 40, 80 25, 87 25"/>
    <path d="M74 40 C 80 40, 80 55, 87 55"/>
  </g>

  <!-- Loop node: circular arrow -->
  <circle cx="65" cy="40" r="9.5" fill="var(--color-surface, #fff)" stroke="var(--color-hairline, #e3e5ea)"/>
  <path d="M69.2 38.6 a4.6 4.6 0 1 0 0.4 2.6" fill="none" stroke="var(--color-display, #16181d)" stroke-width="1.5" stroke-linecap="round"/>
  <path d="M69.9 35.4 L69.4 38.8 L66.1 38.1" fill="none" stroke="var(--color-display, #16181d)" stroke-width="1.5" stroke-linecap="round" stroke-linejoin="round"/>

  <!-- ── Right top: value comment, upvoted (karma earned) ───────── -->
  <rect x="87.5" y="14.5" width="46" height="21" rx="4" fill="var(--color-surface, #fff)" stroke="var(--color-hairline, #e3e5ea)"/>
  <path d="M96 19.2 L100 23.4 L97.7 23.4 L97.7 27 L94.3 27 L94.3 23.4 L92 23.4 Z" fill="#FF4500"/>
  <rect x="104" y="20" width="15" height="2.6" rx="1.3" fill="var(--color-display, #16181d)"/>
  <rect x="104" y="25" width="23" height="2.4" rx="1.2" fill="var(--color-hairline, #e3e5ea)"/>

  <!-- ── Right bottom: rising karma curve ───────────────────────── -->
  <rect x="87.5" y="44.5" width="46" height="21" rx="4" fill="var(--color-surface, #fff)" stroke="var(--color-hairline, #e3e5ea)"/>
  <path d="M92 61 L 101 57 L 108 58.5 L 116 52 L 128 48" fill="none" stroke="#FF4500" stroke-width="1.7" stroke-linecap="round" stroke-linejoin="round"/>
  <circle cx="128" cy="48" r="2" fill="#FF4500"/>
</svg>
