<svg viewBox="0 0 144 80" fill="none" xmlns="http://www.w3.org/2000/svg" aria-hidden="true">
  <!-- Mock of the loop's dashboard: the newest dated briefing (a weather row,
       the day's schedule, topic highlights) beside a calendar of past
       briefings. Colors ride the app's CSS variables. -->
  <rect x="10.5" y="8.5" width="76" height="63" rx="5" fill="var(--color-surface, #fff)" stroke="var(--color-hairline, #e3e5ea)"/>
  <rect x="17" y="14" width="24" height="3" rx="1.5" fill="var(--color-wire, #cfd3db)"/>
  <circle cx="21" cy="27" r="4" fill="var(--color-rubik-yellow, #ffd500)"/>
  <g stroke="var(--color-rubik-yellow, #ffd500)" stroke-width="1.2" stroke-linecap="round">
    <path d="M21 20.5v-2M21 33.5v-2M14.5 27h-2M29.5 27h-2M16.6 22.6l-1.4-1.4M26.8 22.6l1.4-1.4"/>
  </g>
  <rect x="30" y="23" width="24" height="2.6" rx="1.3" fill="var(--color-secondary, #6b7280)"/>
  <rect x="30" y="28.5" width="16" height="2.6" rx="1.3" fill="var(--color-hairline, #e3e5ea)"/>
  <path d="M17 40h64" stroke="var(--color-hairline, #e3e5ea)" stroke-width="1.2"/>
  <g>
    <rect x="17" y="46" width="3" height="16" rx="1.5" fill="var(--color-rubik-blue, #0046ad)" opacity="0.5"/>
    <rect x="24" y="46" width="36" height="2.5" rx="1.25" fill="var(--color-wire, #cfd3db)"/>
    <rect x="24" y="51.5" width="28" height="2.5" rx="1.25" fill="var(--color-hairline, #e3e5ea)"/>
    <rect x="24" y="57.5" width="44" height="2.5" rx="1.25" fill="var(--color-hairline, #e3e5ea)"/>
  </g>
  <rect x="94.5" y="10.5" width="39" height="59" rx="5" fill="var(--color-surface, #fff)" stroke="var(--color-hairline, #e3e5ea)"/>
  <rect x="94.5" y="10.5" width="39" height="11" rx="5" fill="var(--color-interactive-soft, rgba(0,70,173,0.08))"/>
  <g stroke="var(--color-hairline, #e3e5ea)" fill="var(--color-surface, #fff)">
    <rect x="99" y="27.5" width="9" height="8" rx="2"/><rect x="110.5" y="27.5" width="9" height="8" rx="2"/><rect x="122" y="27.5" width="9" height="8" rx="2"/>
    <rect x="99" y="39.5" width="9" height="8" rx="2"/><rect x="110.5" y="39.5" width="9" height="8" rx="2"/><rect x="122" y="39.5" width="9" height="8" rx="2"/>
    <rect x="99" y="51.5" width="9" height="8" rx="2"/><rect x="110.5" y="51.5" width="9" height="8" rx="2"/><rect x="122" y="51.5" width="9" height="8" rx="2"/>
  </g>
  <g fill="var(--color-rubik-blue, #0046ad)">
    <circle cx="103.5" cy="31.5" r="1.8"/><circle cx="115" cy="31.5" r="1.8"/><circle cx="126.5" cy="31.5" r="1.8"/>
    <circle cx="103.5" cy="43.5" r="1.8"/><circle cx="115" cy="43.5" r="1.8"/>
  </g>
</svg>
